<svg width="30" height="30" viewBox="0 0 30 30" fill="none" xmlns="http://www.w3.org/2000/svg">
<path d="M16.25 2.5H11.25C5 2.5 2.5 5 2.5 11.25V18.75C2.5 25 5 27.5 11.25 27.5H18.75C25 27.5 27.5 25 27.5 18.75V12.5M22.5 2.5V10M22.5 10L25 7.5M22.5 10L20 7.5M3.3375 23.6875L9.5 19.55C10.4875 18.8875 11.9125 18.9625 12.8 19.725L13.2125 20.0875C14.1875 20.925 15.7625 20.925 16.7375 20.0875L21.9375 15.625C22.9125 14.7875 24.4875 14.7875 25.4625 15.625L27.5 17.375M13.75 10C13.75 11.3807 12.6307 12.5 11.25 12.5C9.86929 12.5 8.75 11.3807 8.75 10C8.75 8.61929 9.86929 7.5 11.25 7.5C12.6307 7.5 13.75 8.61929 13.75 10Z" stroke="white" stroke-width="1.5" stroke-linecap="round" stroke-linejoin="round"/>
</svg>
